#Comment line ignore any data following # character 
#Hierarchical Translation and Rotation (.htr) file 
[Header]	
#Header keywords are followed by a single value 
FileType HTR		#Single word string
DataType HTRS		#Translation followed by rotation and scale data
FileVersion 1		#integer
NumSegments 64		#integer
NumFrames 3		#integer
DataFrameRate 30		#integer, data frame rate in this file
EulerRotationOrder ZYX
CalibrationUnits mm
RotationUnits Degrees
GlobalAxisofGravity Y
BoneLengthAxis Y
ScaleFactor 1.00
[SegmentNames&Hierarchy]
#CHILD	PARENT
Pinger_Root GLOBAL
Pelvis Pinger_Root
L_Hip Pelvis
R_Hip Pelvis
Rear_Leg01 Pelvis
Spine1 Pelvis
L_Leg01 L_Hip
L_Leg02 L_Leg01
L_Leg03 L_Leg02
L_Foot L_Leg03
L_Toe1_01 L_Foot
L_Toe2_01 L_Foot
L_Toe3_01 L_Foot
planeAlignerLeft L_Foot
L_Toe1_02 L_Toe1_01
L_Toe1_03 L_Toe1_02
L_Toe2_02 L_Toe2_01
L_Toe2_03 L_Toe2_02
L_Toe3_02 L_Toe3_01
L_Toe3_03 L_Toe3_02
planeLockWeightLeft planeAlignerLeft
R_Leg01 R_Hip
R_Leg02 R_Leg01
R_Leg03 R_Leg02
R_Foot R_Leg03
planeAlignerRight R_Foot
R_Toe1_01 R_Foot
R_Toe2_01 R_Foot
R_Toe3_01 R_Foot
planeLockWeightRight planeAlignerRight
R_Toe1_02 R_Toe1_01
R_Toe1_03 R_Toe1_02
R_Toe2_02 R_Toe2_01
R_Toe2_03 R_Toe2_02
R_Toe3_02 R_Toe3_01
R_Toe3_03 R_Toe3_02
Rear_Leg02 Rear_Leg01
Rear_Leg03 Rear_Leg02
Rear_Leg04 Rear_Leg03
Rear_Foot Rear_Leg04
planeAlignerCenter Rear_Foot
Rear_Toe1_01 Rear_Foot
Rear_Toe2_01 Rear_Foot
Rear_Toe3_01 Rear_Foot
planeLockWeightCenter planeAlignerCenter
Rear_Toe1_02 Rear_Toe1_01
Rear_Toe1_03 Rear_Toe1_02
Rear_Toe2_02 Rear_Toe2_01
Rear_Toe2_03 Rear_Toe2_02
Rear_Toe3_02 Rear_Toe3_01
Rear_Toe3_03 Rear_Toe3_02
Back_Bone Spine1
Head Spine1
Motor_Bone Back_Bone
Ping_Mechanism Back_Bone
BN_LookIK Head
bottomMouth Head
L_Mouth01 Head
L_mouthFront Head
mouthGun Head
R_Mouth01 Head
R_mouthFront Head
TopMouth Head
weapon_bone Head
[BasePosition]
#SegmentName Tx, Ty, Tz, Rx, Ry, Rz, BoneLength
Pinger_Root 0.000000 0.000000 0.000000 -90.000000 0.000000 0.000000 10.000000 
Pelvis 0.000000 0.000000 0.000000 0.000000 0.000000 0.000000 10.000000 
L_Hip 0.000000 0.000000 0.000000 0.000000 0.000000 0.000000 10.000000 
R_Hip 0.000000 0.000000 0.000000 0.000000 0.000000 0.000000 10.000000 
Rear_Leg01 0.000000 0.000000 0.000000 0.000000 0.000000 0.000000 10.000000 
Spine1 0.000000 0.000000 0.000000 0.000000 0.000000 0.000000 10.000000 
L_Leg01 0.000000 0.000000 0.000000 0.000000 0.000000 0.000000 10.000000 
L_Leg02 0.000000 0.000000 0.000000 0.000000 0.000000 0.000000 10.000000 
L_Leg03 0.000000 0.000000 0.000000 0.000000 0.000000 0.000000 10.000000 
L_Foot 0.000000 0.000000 0.000000 0.000000 0.000000 0.000000 10.000000 
L_Toe1_01 0.000000 0.000000 0.000000 0.000000 0.000000 0.000000 10.000000 
L_Toe2_01 0.000000 0.000000 0.000000 0.000000 0.000000 0.000000 10.000000 
L_Toe3_01 0.000000 0.000000 0.000000 0.000000 0.000000 0.000000 10.000000 
planeAlignerLeft 0.000000 0.000000 0.000000 0.000000 0.000000 0.000000 10.000000 
L_Toe1_02 0.000000 0.000000 0.000000 0.000000 0.000000 0.000000 10.000000 
L_Toe1_03 0.000000 0.000000 0.000000 0.000000 0.000000 0.000000 10.000000 
L_Toe2_02 0.000000 0.000000 0.000000 0.000000 0.000000 0.000000 10.000000 
L_Toe2_03 0.000000 0.000000 0.000000 0.000000 0.000000 0.000000 10.000000 
L_Toe3_02 0.000000 0.000000 0.000000 0.000000 0.000000 0.000000 10.000000 
L_Toe3_03 0.000000 0.000000 0.000000 0.000000 0.000000 0.000000 10.000000 
planeLockWeightLeft 0.000000 0.000000 0.000000 0.000000 0.000000 0.000000 10.000000 
R_Leg01 0.000000 0.000000 0.000000 0.000000 0.000000 0.000000 10.000000 
R_Leg02 0.000000 0.000000 0.000000 0.000000 0.000000 0.000000 10.000000 
R_Leg03 0.000000 0.000000 0.000000 0.000000 0.000000 0.000000 10.000000 
R_Foot 0.000000 0.000000 0.000000 0.000000 0.000000 0.000000 10.000000 
planeAlignerRight 0.000000 0.000000 0.000000 0.000000 0.000000 0.000000 10.000000 
R_Toe1_01 0.000000 0.000000 0.000000 0.000000 0.000000 0.000000 10.000000 
R_Toe2_01 0.000000 0.000000 0.000000 0.000000 0.000000 0.000000 10.000000 
R_Toe3_01 0.000000 0.000000 0.000000 0.000000 0.000000 0.000000 10.000000 
planeLockWeightRight 0.000000 0.000000 0.000000 0.000000 0.000000 0.000000 10.000000 
R_Toe1_02 0.000000 0.000000 0.000000 0.000000 0.000000 0.000000 10.000000 
R_Toe1_03 0.000000 0.000000 0.000000 0.000000 0.000000 0.000000 10.000000 
R_Toe2_02 0.000000 0.000000 0.000000 0.000000 0.000000 0.000000 10.000000 
R_Toe2_03 0.000000 0.000000 0.000000 0.000000 0.000000 0.000000 10.000000 
R_Toe3_02 0.000000 0.000000 0.000000 0.000000 0.000000 0.000000 10.000000 
R_Toe3_03 0.000000 0.000000 0.000000 0.000000 0.000000 0.000000 10.000000 
Rear_Leg02 0.000000 0.000000 0.000000 0.000000 0.000000 0.000000 10.000000 
Rear_Leg03 0.000000 0.000000 0.000000 0.000000 0.000000 0.000000 10.000000 
Rear_Leg04 0.000000 0.000000 0.000000 0.000000 0.000000 0.000000 10.000000 
Rear_Foot 0.000000 0.000000 0.000000 0.000000 0.000000 0.000000 10.000000 
planeAlignerCenter 0.000000 0.000000 0.000000 0.000000 0.000000 0.000000 10.000000 
Rear_Toe1_01 0.000000 0.000000 0.000000 0.000000 0.000000 0.000000 10.000000 
Rear_Toe2_01 0.000000 0.000000 0.000000 0.000000 0.000000 0.000000 10.000000 
Rear_Toe3_01 0.000000 0.000000 0.000000 0.000000 0.000000 0.000000 10.000000 
planeLockWeightCenter 0.000000 0.000000 0.000000 0.000000 0.000000 0.000000 10.000000 
Rear_Toe1_02 0.000000 0.000000 0.000000 0.000000 0.000000 0.000000 10.000000 
Rear_Toe1_03 0.000000 0.000000 0.000000 0.000000 0.000000 0.000000 10.000000 
Rear_Toe2_02 0.000000 0.000000 0.000000 0.000000 0.000000 0.000000 10.000000 
Rear_Toe2_03 0.000000 0.000000 0.000000 0.000000 0.000000 0.000000 10.000000 
Rear_Toe3_02 0.000000 0.000000 0.000000 0.000000 0.000000 0.000000 10.000000 
Rear_Toe3_03 0.000000 0.000000 0.000000 0.000000 0.000000 0.000000 10.000000 
Back_Bone 0.000000 0.000000 0.000000 0.000000 0.000000 0.000000 10.000000 
Head 0.000000 0.000000 0.000000 0.000000 0.000000 0.000000 10.000000 
Motor_Bone 0.000000 0.000000 0.000000 0.000000 0.000000 0.000000 10.000000 
Ping_Mechanism 0.000000 0.000000 0.000000 0.000000 0.000000 0.000000 10.000000 
BN_LookIK 0.000000 0.000000 0.000000 0.000000 0.000000 0.000000 10.000000 
bottomMouth 0.000000 0.000000 0.000000 0.000000 0.000000 0.000000 10.000000 
L_Mouth01 0.000000 0.000000 0.000000 0.000000 0.000000 0.000000 10.000000 
L_mouthFront 0.000000 0.000000 0.000000 0.000000 0.000000 0.000000 10.000000 
mouthGun 0.000000 0.000000 0.000000 0.000000 0.000000 0.000000 10.000000 
R_Mouth01 0.000000 0.000000 0.000000 0.000000 0.000000 0.000000 10.000000 
R_mouthFront 0.000000 0.000000 0.000000 0.000000 0.000000 0.000000 10.000000 
TopMouth 0.000000 0.000000 0.000000 0.000000 0.000000 0.000000 10.000000 
weapon_bone 0.000000 0.000000 0.000000 0.000000 0.000000 0.000000 10.000000 
#Beginning of Data. Separated by tabs
#Fr	Tx	Ty	Tz	Rx	Ry	Rz	SF
[Pinger_Root]
23 0.000000 0.000000 0.000000 -0.000075 -0.000000 -0.000020 0.000000
24 0.000000 0.000000 0.000000 -0.000075 -0.000000 -0.000020 0.000000
25 0.000000 0.000000 0.000000 -0.000075 -0.000000 -0.000020 0.000000
[Pelvis]
23 -766.739441 495.611328 4371.833984 -163.507416 -81.868820 155.680710 4466.145020
24 -770.582825 493.474487 4371.283691 -162.498932 -81.802147 154.662521 4466.031250
25 -773.307556 492.054260 4369.441406 -161.507095 -81.732857 153.660950 4464.542969
[L_Hip]
23 5.766392 125.831482 872.656799 160.158691 -45.484905 122.312202 881.701050
24 5.766392 125.831482 872.656799 160.158691 -45.484894 122.312187 881.701050
25 5.766392 125.831482 872.656799 160.158691 -45.484894 122.312202 881.701050
[R_Hip]
23 5.765438 125.836372 -872.654907 38.087841 49.812687 125.703735 881.699829
24 5.765438 125.836372 -872.654907 38.087830 49.812672 125.703735 881.699829
25 5.765438 125.836372 -872.654907 38.087841 49.812687 125.703735 881.699829
[Rear_Leg01]
23 -192.298416 -925.602966 -0.001907 168.819595 6.638553 -163.751785 945.367432
24 -192.298416 -925.602966 -0.001907 168.819366 6.665828 -163.897629 945.367432
25 -192.298416 -925.602966 -0.001907 168.819077 6.693097 -164.043488 945.367432
[Spine1]
23 290.604584 5.007505 0.000477 26.403835 -9.587397 -1.772635 290.647736
24 290.604584 5.007505 0.000477 26.385952 -9.609285 -1.734323 290.647736
25 290.604584 5.007505 0.000477 26.368055 -9.631167 -1.696002 290.647736
[L_Leg01]
23 761.932007 -0.002384 -0.069261 17.948872 -21.150248 1.711898 761.932068
24 761.932007 -0.002384 -0.069261 17.847008 -21.205412 1.798612 761.932068
25 761.932007 -0.002384 -0.069261 17.607697 -21.302467 2.189927 761.932068
[L_Leg02]
23 1441.140503 -0.000954 -0.000715 3.521616 -0.191425 -137.384018 1441.140503
24 1441.140503 -0.000954 -0.000715 3.530987 -0.192324 -137.471542 1441.140503
25 1441.140503 -0.000954 -0.000715 3.540359 -0.193209 -137.559082 1441.140503
[L_Leg03]
23 1686.963989 -0.000715 -0.000954 -0.034079 0.012476 119.139580 1686.963989
24 1686.963989 -0.000715 -0.000954 -0.034074 0.012489 119.184715 1686.963989
25 1686.963989 -0.000715 -0.000954 -0.034069 0.012502 119.229843 1686.963989
[L_Foot]
23 3041.570068 -30.715107 11.297464 12.279431 12.496657 54.726021 3041.746094
24 3041.570068 -30.715107 11.297464 12.361188 12.513534 54.709496 3041.746094
25 3041.570068 -30.715107 11.297464 12.442948 12.530432 54.693005 3041.746094
[L_Toe1_01]
23 -188.216690 -224.732346 -21.137953 94.247246 -14.090798 -176.876190 293.899567
24 -188.216690 -224.732346 -21.137953 94.249580 -14.064111 -176.927307 293.899567
25 -188.216690 -224.732346 -21.137953 94.251907 -14.037423 -176.978439 293.899567
[L_Toe2_01]
23 200.746536 -219.926590 148.838394 -86.884590 -38.160435 -51.774811 332.896027
24 200.746536 -219.926590 148.838394 -86.962540 -38.143902 -51.623241 332.896027
25 200.746536 -219.926590 148.838394 -86.962540 -38.143902 -51.623238 332.896027
[L_Toe3_01]
23 188.832520 -219.859131 -191.078659 -96.251823 5.574860 -58.067852 347.140900
24 188.832520 -219.859131 -191.078659 -96.244034 5.651122 -57.931499 347.140900
25 188.832520 -219.859131 -191.078659 -96.244041 5.651122 -57.931507 347.140900
[planeAlignerLeft]
23 0.812531 -811.448792 -0.314951 0.000000 -90.000000 -90.001900 811.449280
24 0.812531 -811.448792 -0.314951 0.000000 -90.000000 -90.001900 811.449280
25 0.812531 -811.448792 -0.314951 0.000000 -90.000000 -90.001900 811.449280
[L_Toe1_02]
23 413.761139 0.000477 0.000000 0.001661 0.069075 0.001661 413.761139
24 413.761139 0.000477 0.000000 0.001661 0.068815 0.001661 413.761139
25 413.761139 0.000477 0.000000 0.001661 0.068555 0.001661 413.761139
[L_Toe1_03]
23 464.317322 0.000358 -0.000089 0.001673 -0.448396 -0.003292 464.317322
24 464.317322 0.000358 -0.000089 0.001673 -0.448396 -0.003292 464.317322
25 464.317322 0.000358 -0.000089 0.001673 -0.448396 -0.003292 464.317322
[L_Toe2_02]
23 342.235809 -0.000477 0.000238 0.001186 -73.436050 0.001186 342.235809
24 342.235809 -0.000477 0.000238 0.001186 -73.474831 0.001186 342.235809
25 342.235809 -0.000477 0.000238 0.001186 -73.513603 0.001186 342.235809
[L_Toe2_03]
23 420.210846 -0.000715 0.000000 -0.041652 88.349571 -0.038155 420.210846
24 420.210846 -0.000715 0.000000 -0.045561 88.496368 -0.042064 420.210846
25 420.210846 -0.000715 0.000000 -0.045433 88.492210 -0.041936 420.210846
[L_Toe3_02]
23 329.270111 0.000954 0.000000 0.004676 -84.421600 0.004676 329.270111
24 329.270111 0.000954 0.000000 0.004676 -84.416153 0.004676 329.270111
25 329.270111 0.000954 0.000000 0.004676 -84.410713 0.004676 329.270111
[L_Toe3_03]
23 439.137451 -0.001907 0.000954 179.992569 53.672688 179.999908 439.137451
24 439.137451 -0.001907 0.000954 179.992569 53.575058 179.999924 439.137451
25 439.137451 -0.001907 0.000954 179.992569 53.575073 179.999924 439.137451
[planeLockWeightLeft]
23 -0.000954 0.000238 -0.000305 -0.011826 -0.004376 0.005620 0.001029
24 -0.000954 0.000238 -0.000305 -0.011826 -0.004376 0.005620 0.001029
25 -0.000954 0.000238 -0.000305 -0.011826 -0.004376 0.005620 0.001029
[R_Leg01]
23 761.455627 -0.001907 -0.000358 120.445976 8.405584 45.301502 761.455688
24 761.455627 -0.001907 -0.000358 120.477150 8.335293 45.237370 761.455688
25 761.455627 -0.001907 -0.000358 120.508400 8.265035 45.173214 761.455688
[R_Leg02]
23 1441.140625 0.000000 -0.000238 0.548018 0.082687 -65.255318 1441.140625
24 1441.140625 0.000000 -0.000238 0.551511 0.081415 -65.146767 1441.140625
25 1441.140625 0.000000 -0.000238 0.555002 0.080137 -65.038193 1441.140625
[R_Leg03]
23 1686.963989 0.000954 0.001431 0.017733 -0.006275 114.735298 1686.963989
24 1686.963989 0.000954 0.001431 0.016847 -0.004876 114.664810 1686.963989
25 1686.963989 0.000954 0.001431 0.015959 -0.003479 114.594322 1686.963989
[R_Foot]
23 3041.560059 -30.531288 -11.204481 8.951159 -23.688763 31.799448 3041.734131
24 3041.560059 -30.531288 -11.204481 8.993960 -23.680351 31.690933 3041.734131
25 3041.560059 -30.531288 -11.204481 9.036740 -23.671865 31.582426 3041.734131
[planeAlignerRight]
23 -0.635147 -812.270569 -0.364304 0.000000 -89.960434 -90.005180 812.270874
24 -0.635147 -812.270569 -0.364304 0.000000 -89.960434 -90.005180 812.270874
25 -0.635147 -812.270569 -0.364304 0.000000 -89.960434 -90.005180 812.270874
[R_Toe1_01]
23 -188.383347 -224.864899 21.052242 77.046402 -3.382478 -171.341156 294.101532
24 -188.383347 -224.864899 21.052242 77.047897 -3.392565 -171.358871 294.101532
25 -188.383347 -224.864899 21.052242 77.049377 -3.402650 -171.376587 294.101532
[R_Toe2_01]
23 200.637817 -220.002121 -148.787384 -90.826843 29.334873 -59.546772 332.857574
24 200.637817 -220.002121 -148.787384 -90.815994 29.332544 -59.527584 332.857574
25 200.637817 -220.002121 -148.787384 -90.805130 29.330206 -59.508392 332.857574
[R_Toe3_01]
23 188.606735 -220.092957 191.126343 -71.999786 -10.239408 -75.587997 347.192566
24 188.606735 -220.092957 191.126343 -71.995255 -10.249190 -75.575340 347.192566
25 188.606735 -220.092957 191.126343 -71.990715 -10.258976 -75.562683 347.192566
[planeLockWeightRight]
23 -0.000477 0.000000 0.000000 -0.011823 -0.004379 -0.000027 0.000477
24 -0.000477 0.000000 0.000000 -0.011823 -0.004379 -0.000027 0.000477
25 -0.000477 0.000000 0.000000 -0.011823 -0.004379 -0.000027 0.000477
[R_Toe1_02]
23 413.762085 0.000477 -0.000119 0.000006 -25.434675 -0.000005 413.762085
24 413.762085 0.000477 -0.000119 0.000006 -25.434675 -0.000005 413.762085
25 413.762085 0.000477 -0.000119 0.000006 -25.434675 -0.000005 413.762085
[R_Toe1_03]
23 464.317810 0.000000 0.001088 0.007128 71.046173 0.007128 464.317810
24 464.317810 0.000000 0.001088 0.007136 71.069183 0.007136 464.317810
25 464.317810 0.000000 0.001088 0.007145 71.092201 0.007145 464.317810
[R_Toe2_02]
23 342.234741 -0.000954 0.000238 0.001198 -66.909508 0.001198 342.234741
24 342.234741 -0.000954 0.000238 0.001198 -66.927956 0.001198 342.234741
25 342.234741 -0.000954 0.000238 0.001198 -66.946411 0.001198 342.234741
[R_Toe2_03]
23 420.210846 0.000715 -0.000268 0.007969 73.062531 0.007969 420.210846
24 420.210846 0.000715 -0.000268 0.007980 73.086792 0.007980 420.210846
25 420.210846 0.000715 -0.000268 0.007992 73.111038 0.007992 420.210846
[R_Toe3_02]
23 329.270355 -0.000477 -0.000954 -0.009055 -69.727928 0.008331 329.270355
24 329.270355 -0.000477 -0.000954 -0.008327 -69.739990 0.007826 329.270355
25 329.270355 -0.000477 -0.000954 -0.007600 -69.752037 0.007320 329.270355
[R_Toe3_03]
23 439.137939 0.000238 0.001431 0.007874 72.856667 0.007874 439.137939
24 439.137939 0.000238 0.001431 0.007886 72.881714 0.007886 439.137939
25 439.137939 0.000238 0.001431 0.007897 72.906776 0.007897 439.137939
[Rear_Leg02]
23 1162.777710 -0.029802 0.005960 1.257745 -2.701591 -136.829117 1162.777710
24 1162.777710 -0.029802 0.005960 1.256326 -2.702222 -136.807800 1162.777710
25 1162.777710 -0.029802 0.005960 1.254906 -2.702852 -136.786484 1162.777710
[Rear_Leg03]
23 607.192505 -0.013351 -0.073195 0.010464 -0.005164 68.891777 607.192505
24 607.192505 -0.013351 -0.073195 0.010462 -0.005167 68.923248 607.192505
25 607.192505 -0.013351 -0.073195 0.010461 -0.005170 68.954727 607.192505
[Rear_Leg04]
23 995.874512 -0.020504 -0.011921 -0.040338 -0.018489 68.112419 995.874573
24 995.874512 -0.020504 -0.011921 -0.040336 -0.018495 68.097069 995.874573
25 995.874512 -0.020504 -0.011921 -0.040333 -0.018500 68.081726 995.874573
[Rear_Foot]
23 3096.176270 -0.067472 -0.041425 -16.279106 80.707047 172.387192 3096.176270
24 3096.176270 -0.067472 -0.041425 -16.178205 80.650230 172.483414 3096.176270
25 3096.176270 -0.067472 -0.041425 -16.078485 80.593361 172.578430 3096.176270
[planeAlignerCenter]
23 0.350077 0.966311 -838.790894 0.000009 0.000003 -179.999985 838.791565
24 0.350077 0.966311 -838.790894 0.000009 0.000003 -179.999985 838.791565
25 0.350077 0.966311 -838.790894 0.000009 0.000003 -179.999985 838.791565
[Rear_Toe1_01]
23 0.653352 83.966492 -371.173737 0.288091 41.914127 90.413170 380.553192
24 0.653352 83.966492 -371.173737 0.288088 41.914131 90.413170 380.553192
25 0.653352 83.966492 -371.173737 0.288091 41.914127 90.413170 380.553192
[Rear_Toe2_01]
23 178.200760 -294.826019 -362.060547 -7.196267 34.406261 -66.271294 499.765686
24 178.200760 -294.826019 -362.060547 -7.196269 34.406261 -66.271301 499.765686
25 178.200760 -294.826019 -362.060547 -7.196267 34.406261 -66.271294 499.765686
[Rear_Toe3_01]
23 -153.359680 -308.780914 -362.060852 3.289418 33.518005 -112.540970 499.952881
24 -153.359680 -308.780914 -362.060852 3.289415 33.517998 -112.540970 499.952881
25 -153.359680 -308.780914 -362.060852 3.289418 33.518005 -112.540970 499.952881
[planeLockWeightCenter]
23 -0.000062 0.000238 0.000000 -0.011814 -0.004373 -0.000015 0.000246
24 -0.000062 0.000238 0.000000 -0.011814 -0.004373 -0.000015 0.000246
25 -0.000062 0.000238 0.000000 -0.011814 -0.004373 -0.000015 0.000246
[Rear_Toe1_02]
23 379.707825 0.194073 0.000477 -0.000242 -31.676744 0.006934 379.707855
24 379.707825 0.194073 0.000477 -0.000242 -31.676744 0.006934 379.707855
25 379.707825 0.194073 0.000477 -0.000242 -31.676744 0.006934 379.707855
[Rear_Toe1_03]
23 500.129700 0.165701 0.000119 -0.000103 51.902466 0.007295 500.129761
24 500.129700 0.165701 0.000119 -0.000103 51.902466 0.007295 500.129761
25 500.129700 0.165701 0.000119 -0.000103 51.902481 0.007295 500.129761
[Rear_Toe2_02]
23 340.494507 0.000238 -0.000954 0.001192 -69.854523 0.001192 340.494507
24 340.494507 0.000238 -0.000954 0.001192 -69.854523 0.001192 340.494507
25 340.494507 0.000238 -0.000954 0.001192 -69.854523 0.001192 340.494507
[Rear_Toe2_03]
23 433.103577 0.000000 0.000238 0.006696 69.810303 0.006696 433.103546
24 433.103577 0.000000 0.000238 0.006696 69.810303 0.006696 433.103546
25 433.103577 0.000000 0.000238 0.006696 69.810341 0.006696 433.103546
[Rear_Toe3_02]
23 340.494141 -0.000358 -0.000477 0.008288 -67.274704 -0.009460 340.494171
24 340.494141 -0.000358 -0.000477 0.008288 -67.274704 -0.009460 340.494171
25 340.494141 -0.000358 -0.000477 0.008288 -67.274704 -0.009460 340.494171
[Rear_Toe3_03]
23 433.103577 0.001431 -0.000238 -0.000972 65.959007 -0.004547 433.103546
24 433.103577 0.001431 -0.000238 -0.000972 65.958961 -0.004547 433.103546
25 433.103577 0.001431 -0.000238 -0.000972 65.958984 -0.004547 433.103546
[Back_Bone]
23 1312.175781 -701.934692 0.000954 0.000023 -0.000007 -85.606667 1488.125488
24 1312.175781 -701.934692 0.000954 0.000023 -0.000007 -85.606667 1488.125488
25 1312.175781 -701.934692 0.000954 0.000023 -0.000007 -85.606667 1488.125488
[Head]
23 1406.159424 809.709290 0.001431 0.824291 2.361398 12.111441 1622.625488
24 1406.159424 809.709290 0.001431 1.013916 2.087670 12.102575 1622.625488
25 1406.159424 809.709290 0.001431 1.118062 1.611515 11.805682 1622.625488
[Motor_Bone]
23 1158.364380 -417.834747 0.000477 -0.000105 0.000046 -105.985291 1231.419434
24 1158.364380 -417.834747 0.000477 -0.000105 0.000046 -105.985291 1231.419434
25 1158.364380 -417.834747 0.000477 -0.000105 0.000046 -105.985291 1231.419434
[Ping_Mechanism]
23 1215.237793 -433.297150 0.000954 0.000103 -0.000053 82.120995 1290.174072
24 1215.237793 -433.297150 0.000954 0.000103 -0.000053 82.120995 1290.174072
25 1215.237793 -433.297150 0.000954 0.000103 -0.000053 82.120995 1290.174072
[BN_LookIK]
23 193.241119 1380.371704 -0.002861 0.000000 89.965736 -31.038179 1393.832153
24 193.241119 1380.371704 -0.002861 0.000000 89.965736 -31.038179 1393.832153
25 193.241119 1380.371704 -0.002861 0.000000 89.965736 -31.038179 1393.832153
[bottomMouth]
23 -435.092926 615.759399 -0.000954 -0.000022 0.000016 73.527184 753.966492
24 -435.092926 615.759399 -0.000954 -0.000022 0.000016 73.527184 753.966492
25 -435.092926 615.759399 -0.000954 -0.000022 0.000016 73.527184 753.966492
[L_Mouth01]
23 554.440979 7.658243 838.222046 150.204178 23.759130 109.605339 1005.027161
24 554.440979 7.658243 838.222046 150.204178 23.759130 109.605339 1005.027161
25 554.440979 7.658243 838.222046 150.204178 23.759130 109.605339 1005.027161
[L_mouthFront]
23 551.629089 934.514771 339.150421 0.000081 2.804060 79.119301 1136.941284
24 551.629089 934.514771 339.150421 0.000081 2.804060 79.119301 1136.941284
25 551.629089 934.514771 339.150421 0.000081 2.804060 79.119301 1136.941284
[mouthGun]
23 55.332661 1627.420898 0.000000 0.000023 0.000009 -11.038128 1628.361328
24 55.332661 1627.420898 0.000000 0.000023 0.000009 -11.038128 1628.361328
25 55.332661 1627.420898 0.000000 0.000023 0.000009 -11.038128 1628.361328
[R_Mouth01]
23 554.442383 7.659197 -838.223938 29.795891 -23.759109 109.605331 1005.029541
24 554.442383 7.659197 -838.223938 29.795891 -23.759109 109.605331 1005.029541
25 554.442383 7.659197 -838.223938 29.795891 -23.759109 109.605331 1005.029541
[R_mouthFront]
23 551.629089 934.514282 -339.151367 0.000029 -2.803930 79.119133 1136.941162
24 551.629089 934.514282 -339.151367 0.000029 -2.803930 79.119133 1136.941162
25 551.629089 934.514282 -339.151367 0.000029 -2.803930 79.119133 1136.941162
[TopMouth]
23 461.269867 -56.106091 -0.008583 -0.000059 -0.000268 92.025169 464.669525
24 461.269867 -56.106091 -0.008583 -0.000059 -0.000268 92.025169 464.669525
25 461.269867 -56.106091 -0.008583 -0.000059 -0.000268 92.025169 464.669525
[weapon_bone]
23 -987.239868 1448.372803 0.001431 0.000000 89.965736 -31.038221 1752.833740
24 -987.239868 1448.372803 0.001431 0.000000 89.965736 -31.038221 1752.833740
25 -987.239868 1448.372803 0.001431 0.000000 89.965736 -31.038221 1752.833740
